<svg width="73" height="48" viewBox="0 0 73 48" fill="none" xmlns="http://www.w3.org/2000/svg">
<path d="M6.325 29.398C5.82633 29.398 5.39367 29.3393 5.027 29.222C4.66767 29.1047 4.38533 28.892 4.18 28.584C3.982 28.276 3.883 27.836 3.883 27.264V26.032H5.566V27.341C5.566 27.5537 5.62467 27.715 5.742 27.825C5.86667 27.9423 6.03533 28.001 6.248 28.001H7.447V29.398H6.325ZM4.752 27.209C4.026 27.209 3.39167 27.0843 2.849 26.835C2.31367 26.5783 1.87 26.2447 1.518 25.834C1.166 25.416 0.902 24.965 0.726 24.481C0.557333 23.997 0.473 23.5313 0.473 23.084V22.842C0.473 22.3433 0.561 21.852 0.737 21.368C0.920333 20.8767 1.19167 20.433 1.551 20.037C1.91033 19.641 2.35767 19.3257 2.893 19.091C3.42833 18.849 4.048 18.728 4.752 18.728C5.456 18.728 6.07567 18.849 6.611 19.091C7.14633 19.3257 7.59367 19.641 7.953 20.037C8.31233 20.433 8.58367 20.8767 8.767 21.368C8.95033 21.852 9.042 22.3433 9.042 22.842V23.084C9.042 23.5313 8.954 23.997 8.778 24.481C8.602 24.965 8.338 25.416 7.986 25.834C7.634 26.2447 7.18667 26.5783 6.644 26.835C6.10867 27.0843 5.478 27.209 4.752 27.209ZM4.752 25.526C5.13333 25.526 5.47433 25.46 5.775 25.328C6.083 25.196 6.34333 25.0127 6.556 24.778C6.776 24.5433 6.941 24.272 7.051 23.964C7.161 23.656 7.216 23.326 7.216 22.974C7.216 22.6 7.15733 22.259 7.04 21.951C6.93 21.6357 6.765 21.3643 6.545 21.137C6.33233 20.9023 6.07567 20.7227 5.775 20.598C5.47433 20.4733 5.13333 20.411 4.752 20.411C4.37067 20.411 4.02967 20.4733 3.729 20.598C3.42833 20.7227 3.168 20.9023 2.948 21.137C2.73533 21.3643 2.574 21.6357 2.464 21.951C2.354 22.259 2.299 22.6 2.299 22.974C2.299 23.326 2.354 23.656 2.464 23.964C2.574 24.272 2.73533 24.5433 2.948 24.778C3.168 25.0127 3.42833 25.196 3.729 25.328C4.02967 25.46 4.37067 25.526 4.752 25.526ZM13.7748 27.209C13.0195 27.209 12.3778 27.0697 11.8498 26.791C11.3292 26.505 10.9332 26.1017 10.6618 25.581C10.3905 25.0603 10.2548 24.4443 10.2548 23.733V18.97H12.0588V23.799C12.0588 24.151 12.1248 24.459 12.2568 24.723C12.3962 24.9797 12.5905 25.1777 12.8398 25.317C13.0965 25.4563 13.4082 25.526 13.7748 25.526C14.1488 25.526 14.4605 25.4563 14.7098 25.317C14.9665 25.1777 15.1608 24.9797 15.2928 24.723C15.4248 24.4663 15.4908 24.1583 15.4908 23.799V18.97H17.2948V23.733C17.2948 24.4443 17.1592 25.0603 16.8878 25.581C16.6165 26.1017 16.2205 26.505 15.6998 26.791C15.1792 27.0697 14.5375 27.209 13.7748 27.209ZM18.9709 27V18.97H20.7749V27H18.9709ZM26.2862 27.209C25.5602 27.209 24.9369 27.0843 24.4162 26.835C23.8956 26.5783 23.4702 26.2447 23.1402 25.834C22.8102 25.416 22.5646 24.9687 22.4032 24.492C22.2492 24.008 22.1722 23.5387 22.1722 23.084V22.842C22.1722 22.3433 22.2529 21.852 22.4142 21.368C22.5756 20.8767 22.8212 20.433 23.1512 20.037C23.4886 19.641 23.9102 19.3257 24.4162 19.091C24.9296 18.849 25.5346 18.728 26.2312 18.728C26.9572 18.728 27.5989 18.8637 28.1562 19.135C28.7136 19.4063 29.1572 19.784 29.4872 20.268C29.8246 20.7447 30.0226 21.3057 30.0812 21.951H28.2662C28.2149 21.6283 28.0976 21.3533 27.9142 21.126C27.7309 20.8987 27.4926 20.7227 27.1992 20.598C26.9132 20.4733 26.5906 20.411 26.2312 20.411C25.8719 20.411 25.5529 20.4733 25.2742 20.598C24.9956 20.7227 24.7609 20.8987 24.5702 21.126C24.3869 21.3533 24.2439 21.6247 24.1412 21.94C24.0459 22.248 23.9982 22.5927 23.9982 22.974C23.9982 23.348 24.0459 23.6927 24.1412 24.008C24.2439 24.316 24.3906 24.5873 24.5812 24.822C24.7792 25.0493 25.0212 25.2253 25.3072 25.35C25.5932 25.4673 25.9196 25.526 26.2862 25.526C26.8436 25.526 27.3129 25.3903 27.6942 25.119C28.0829 24.8477 28.3176 24.4737 28.3982 23.997H30.2022C30.1362 24.5837 29.9382 25.1227 29.6082 25.614C29.2856 26.098 28.8419 26.4867 28.2772 26.78C27.7199 27.066 27.0562 27.209 26.2862 27.209ZM36.6791 27L33.9071 23.249H32.7961L36.1621 18.97H38.2301L35.2051 22.809L35.1831 22.028L38.8571 27H36.6791ZM31.3991 27V18.97H33.2031V27H31.3991ZM41.2106 27.055V25.647H43.0916C43.4289 25.647 43.6819 25.559 43.8506 25.383C44.0192 25.207 44.1036 24.9577 44.1036 24.635C44.1036 24.3123 44.0192 24.0667 43.8506 23.898C43.6819 23.722 43.4289 23.634 43.0916 23.634H41.2106V22.545H43.0036C43.5609 22.545 44.0559 22.6147 44.4886 22.754C44.9212 22.886 45.2622 23.1023 45.5116 23.403C45.7609 23.7037 45.8856 24.1107 45.8856 24.624V24.778C45.8856 25.2547 45.7756 25.6653 45.5556 26.01C45.3356 26.3473 45.0129 26.6077 44.5876 26.791C44.1622 26.967 43.6342 27.055 43.0036 27.055H41.2106ZM39.6706 27.055V18.904H41.4306V27.055H39.6706ZM41.2106 23.348V22.27H42.7946C43.1392 22.27 43.3886 22.182 43.5426 22.006C43.6966 21.83 43.7736 21.5953 43.7736 21.302C43.7736 20.994 43.6966 20.752 43.5426 20.576C43.3886 20.4 43.1392 20.312 42.7946 20.312H41.2106V18.904H42.6846C43.6086 18.904 44.3162 19.0983 44.8076 19.487C45.3062 19.8757 45.5556 20.4293 45.5556 21.148V21.313C45.5556 21.8117 45.4272 22.2113 45.1706 22.512C44.9212 22.8127 44.5802 23.029 44.1476 23.161C43.7222 23.2857 43.2346 23.348 42.6846 23.348H41.2106ZM50.6098 27.209C49.8545 27.209 49.2128 27.0697 48.6848 26.791C48.1641 26.505 47.7681 26.1017 47.4968 25.581C47.2255 25.0603 47.0898 24.4443 47.0898 23.733V18.97H48.8938V23.799C48.8938 24.151 48.9598 24.459 49.0918 24.723C49.2311 24.9797 49.4255 25.1777 49.6748 25.317C49.9315 25.4563 50.2431 25.526 50.6098 25.526C50.9838 25.526 51.2955 25.4563 51.5448 25.317C51.8015 25.1777 51.9958 24.9797 52.1278 24.723C52.2598 24.4663 52.3258 24.1583 52.3258 23.799V18.97H54.1298V23.733C54.1298 24.4443 53.9941 25.0603 53.7228 25.581C53.4515 26.1017 53.0555 26.505 52.5348 26.791C52.0141 27.0697 51.3725 27.209 50.6098 27.209ZM59.4688 27.209C58.7428 27.209 58.1195 27.0843 57.5988 26.835C57.0782 26.5783 56.6528 26.2447 56.3228 25.834C55.9928 25.416 55.7472 24.9687 55.5858 24.492C55.4318 24.008 55.3548 23.5387 55.3548 23.084V22.842C55.3548 22.3433 55.4355 21.852 55.5968 21.368C55.7582 20.8767 56.0038 20.433 56.3338 20.037C56.6712 19.641 57.0928 19.3257 57.5988 19.091C58.1122 18.849 58.7172 18.728 59.4138 18.728C60.1398 18.728 60.7815 18.8637 61.3388 19.135C61.8962 19.4063 62.3398 19.784 62.6698 20.268C63.0072 20.7447 63.2052 21.3057 63.2638 21.951H61.4488C61.3975 21.6283 61.2802 21.3533 61.0968 21.126C60.9135 20.8987 60.6752 20.7227 60.3818 20.598C60.0958 20.4733 59.7732 20.411 59.4138 20.411C59.0545 20.411 58.7355 20.4733 58.4568 20.598C58.1782 20.7227 57.9435 20.8987 57.7528 21.126C57.5695 21.3533 57.4265 21.6247 57.3238 21.94C57.2285 22.248 57.1808 22.5927 57.1808 22.974C57.1808 23.348 57.2285 23.6927 57.3238 24.008C57.4265 24.316 57.5732 24.5873 57.7638 24.822C57.9618 25.0493 58.2038 25.2253 58.4898 25.35C58.7758 25.4673 59.1022 25.526 59.4688 25.526C60.0262 25.526 60.4955 25.3903 60.8768 25.119C61.2655 24.8477 61.5002 24.4737 61.5808 23.997H63.3848C63.3188 24.5837 63.1208 25.1227 62.7908 25.614C62.4682 26.098 62.0245 26.4867 61.4598 26.78C60.9025 27.066 60.2388 27.209 59.4688 27.209ZM69.8617 27L67.0897 23.249H65.9787L69.3447 18.97H71.4127L68.3877 22.809L68.3657 22.028L72.0397 27H69.8617ZM64.5817 27V18.97H66.3857V27H64.5817Z" fill="white"/>
<path d="M11.1478 14.0218C10.0927 15.0769 9.5 16.5079 9.5 18L6 18C6 10.751 11.876 7.5 19.125 7.5L34 7.5L34 1.01717e-06L38.5 1.41057e-06L38.5 7.5L52.875 7.5C60.124 7.5 66 10.751 66 18L62.6471 17.9993C62.6472 17.2605 62.5019 16.5289 62.2192 15.8462C61.9366 15.1636 61.5223 14.5433 61 14.0208C60.4777 13.4983 59.8575 13.0838 59.175 12.8009C58.4925 12.5181 57.7609 12.3724 57.0221 12.3723L57.0221 12.3743L15.126 12.376L15.126 12.374C13.6339 12.374 12.2029 12.9667 11.1478 14.0218Z" fill="white"/>
<path d="M60.8522 33.9782C61.9073 32.9231 62.5 29.4921 62.5 28L66 28C66 37.5 60.124 40.5 52.875 40.5L38 40.5V48H33.5V40.5H19.125C11.876 40.5 6 37.249 6 30L9.35289 30.0007C9.35276 30.7395 9.49815 31.4711 9.78076 32.1538C10.0634 32.8364 10.4777 33.4567 11 33.9792C11.5223 34.5017 12.1425 34.9162 12.825 35.1991C13.5075 35.4819 14.2391 35.6276 14.9779 35.6277V35.6257L56.874 35.624V35.626C58.3661 35.626 59.7971 35.0332 60.8522 33.9782Z" fill="white"/>
</svg>
